<?xml version="1.0" standalone="no"?>
<!DOCTYPE svg PUBLIC "-//W3C//DTD SVG 20010904//EN"
 "http://www.w3.org/TR/2001/REC-SVG-20010904/DTD/svg10.dtd">
<svg version="1.0" xmlns="http://www.w3.org/2000/svg"
 width="1080.000000pt" height="1080.000000pt" viewBox="0 0 1080.000000 1080.000000"
 preserveAspectRatio="xMidYMid meet">
<metadata>
Created by potrace 1.14, written by Peter Selinger 2001-2017
</metadata>
<g transform="translate(0.000000,1080.000000) scale(0.100000,-0.100000)"
fill="#000000" stroke="none">
<path d="M5179 9436 c-2 -2 -49 -7 -104 -10 -55 -3 -109 -8 -120 -10 -11 -2
-47 -7 -80 -11 -33 -4 -69 -9 -80 -10 -259 -34 -667 -149 -940 -263 -114 -48
-360 -168 -453 -222 -373 -213 -717 -492 -1014 -822 -61 -67 -94 -107 -193
-232 -162 -205 -359 -533 -477 -796 -85 -190 -188 -480 -223 -625 -3 -11 -14
-56 -25 -99 -10 -44 -22 -94 -25 -113 -2 -18 -9 -53 -15 -78 -11 -47 -17 -86
-24 -145 -2 -19 -7 -51 -10 -70 -37 -225 -43 -753 -11 -990 2 -14 6 -47 9 -75
9 -67 46 -287 51 -294 1 -3 6 -22 9 -41 12 -72 18 -95 61 -246 44 -151 118
-362 166 -474 45 -104 166 -345 213 -423 25 -43 46 -81 46 -83 0 -6 210 -317
219 -324 3 -3 28 -34 55 -70 80 -105 213 -256 327 -369 93 -94 131 -129 254
-236 17 -15 57 -47 90 -73 33 -25 62 -49 65 -52 16 -21 285 -202 408 -275 314
-187 807 -384 1127 -450 11 -3 40 -9 65 -15 25 -5 56 -12 70 -14 14 -3 48 -9
75 -15 28 -5 88 -14 135 -21 47 -6 99 -12 115 -15 205 -27 720 -27 919 0 17 2
65 9 106 15 41 6 91 13 110 16 19 2 46 7 60 10 14 3 36 8 50 10 14 3 34 7 45
9 140 26 540 143 597 175 10 6 22 10 28 10 5 0 33 10 62 23 29 13 73 32 98 42
112 48 379 186 478 249 23 14 46 26 52 26 5 0 10 4 10 8 0 5 10 13 23 19 20
10 240 162 284 197 262 209 461 401 652 631 107 129 99 119 156 200 27 39 52
72 56 75 10 8 121 187 184 295 91 157 231 447 251 520 1 6 16 44 33 86 70 178
140 434 186 679 3 14 7 36 9 50 7 34 15 91 21 148 3 26 7 58 10 72 13 77 20
214 20 445 0 282 -4 349 -39 610 -14 98 -59 315 -92 440 -222 830 -704 1572
-1371 2110 -7 6 -19 16 -28 23 -8 7 -68 51 -133 98 -64 46 -121 87 -127 92
-45 33 -216 136 -320 192 -80 44 -252 130 -259 130 -3 0 -34 13 -69 29 -98 45
-320 126 -452 165 -185 54 -355 91 -611 131 -11 2 -52 6 -90 10 -38 4 -80 9
-94 12 -30 5 -576 14 -581 9z"/>
</g>
</svg>
